<svg width="156" height="14" viewBox="0 0 156 14" fill="none" xmlns="http://www.w3.org/2000/svg">
<path d="M11.3936 0.369714V13.5452C11.3936 13.6455 11.3183 13.7459 11.1928 13.7459H9.81256C9.18516 13.7459 8.58286 13.4197 8.23151 12.8927L2.00769 3.28086L2.20845 8.07421V13.5702C2.20845 13.6706 2.13317 13.771 2.00769 13.771H0.200767C0.100383 13.771 0 13.6957 0 13.5702V0.369714C0 0.269329 0.0752871 0.168945 0.200767 0.168945H1.55596C2.18336 0.168945 2.78566 0.495194 3.13701 1.02221L9.36083 10.6089L9.16006 5.81556V0.369714C9.16006 0.269329 9.23535 0.168945 9.36083 0.168945H11.1678C11.3183 0.168945 11.3936 0.244233 11.3936 0.369714Z" fill="#0A172F"/>
<path d="M27.4934 13.7208H25.5861C25.4607 13.7208 25.3603 13.5953 25.4105 13.4699L30.4799 0.344618C30.5301 0.244234 30.6305 0.168945 30.7308 0.168945H33.1401C33.2655 0.168945 33.3659 0.244234 33.391 0.344618L38.4855 13.4699C38.5357 13.5953 38.4353 13.7208 38.3098 13.7208H36.4025C36.3273 13.7208 36.252 13.6706 36.2269 13.5953L32.1362 2.80403C32.086 2.65346 31.8351 2.65346 31.7849 2.80403L27.6942 13.5953C27.644 13.6706 27.5687 13.7208 27.4934 13.7208Z" fill="#0A172F"/>
<path d="M51.0705 13.4197L47.2559 8.55103C49.4142 8.1495 50.669 6.69392 50.669 4.46037C50.669 1.90057 49.0127 0.168945 46.0513 0.168945H40.731C40.5804 0.168945 40.4549 0.294426 40.4549 0.445002C40.4549 1.44885 41.258 2.25192 42.2618 2.25192H45.8506C47.6324 2.25192 48.4857 3.15538 48.4857 4.48547C48.4857 5.81556 47.6575 6.71902 45.8506 6.71902H40.7812C40.6306 6.71902 40.5051 6.8445 40.5051 6.99508V13.5201C40.5051 13.6204 40.5804 13.7208 40.7059 13.7208H42.5128C42.6132 13.7208 42.7136 13.6455 42.7136 13.5201V8.67651H44.7965L48.1092 12.993C48.4606 13.4699 49.0127 13.7208 49.615 13.7208H50.9953C51.0956 13.7208 51.1709 13.5452 51.0705 13.4197Z" fill="#0A172F"/>
<path d="M23.3142 0.168945H14.907C14.7565 0.168945 14.6561 0.26933 14.6561 0.419906C14.6561 1.42375 15.4843 2.25192 16.4881 2.25192H23.3142C23.4146 2.25192 23.515 2.17663 23.515 2.05115V0.344618C23.4899 0.244234 23.4146 0.168945 23.3142 0.168945ZM23.3142 11.6378H17.0402C16.9398 11.6378 16.8394 11.5626 16.8394 11.4371V8.04911C16.8394 7.94873 16.9147 7.84834 17.0402 7.84834H22.8374C22.9378 7.84834 23.0382 7.77305 23.0382 7.64757V5.94104C23.0382 5.84066 22.9629 5.74027 22.8374 5.74027H14.9321C14.7816 5.74027 14.6561 5.86575 14.6561 6.01633V13.4197C14.6561 13.5702 14.7816 13.6957 14.9321 13.6957H23.3142C23.4146 13.6957 23.515 13.6204 23.515 13.495V11.7884C23.4899 11.7131 23.4146 11.6378 23.3142 11.6378Z" fill="#0A172F"/>
<path d="M67.3633 11.3238H62.3004L61.4888 13.72H58.0298L62.9381 0.154592H66.7642L71.6725 13.72H68.1749L67.3633 11.3238ZM66.513 8.77309L64.8318 3.80682L63.17 8.77309H66.513Z" fill="#0A172F"/>
<path d="M72.606 6.91798C72.606 5.57819 72.8958 4.38654 73.4755 3.34305C74.0552 2.28667 74.8604 1.46862 75.891 0.888903C76.9345 0.296301 78.1133 0 79.4273 0C81.0376 0 82.4161 0.425127 83.5626 1.27538C84.7092 2.12564 85.4757 3.28508 85.8622 4.7537H82.2293C81.9588 4.18686 81.5723 3.75529 81.0698 3.45899C80.5803 3.16269 80.0199 3.01454 79.3887 3.01454C78.3709 3.01454 77.5464 3.36881 76.9152 4.07736C76.2839 4.7859 75.9683 5.73278 75.9683 6.91798C75.9683 8.10319 76.2839 9.05006 76.9152 9.75861C77.5464 10.4672 78.3709 10.8214 79.3887 10.8214C80.0199 10.8214 80.5803 10.6733 81.0698 10.377C81.5723 10.0807 81.9588 9.6491 82.2293 9.08227H85.8622C85.4757 10.5509 84.7092 11.7103 83.5626 12.5606C82.4161 13.398 81.0376 13.8166 79.4273 13.8166C78.1133 13.8166 76.9345 13.5268 75.891 12.9471C74.8604 12.3545 74.0552 11.5364 73.4755 10.4929C72.8958 9.44942 72.606 8.25778 72.606 6.91798Z" fill="#0A172F"/>
<path d="M96.3304 11.3238H91.2675L90.4559 13.72H86.9969L91.9052 0.154592H95.7313L100.64 13.72H97.142L96.3304 11.3238ZM95.4801 8.77309L93.7989 3.80682L92.1371 8.77309H95.4801Z" fill="#0A172F"/>
<path d="M107.216 0.154592C108.646 0.154592 109.895 0.43801 110.964 1.00485C112.034 1.57168 112.858 2.37041 113.438 3.40102C114.031 4.41875 114.327 5.59751 114.327 6.93731C114.327 8.26422 114.031 9.44298 113.438 10.4736C112.858 11.5042 112.027 12.3029 110.945 12.8698C109.876 13.4366 108.633 13.72 107.216 13.72H102.133V0.154592H107.216ZM107.003 10.8601C108.253 10.8601 109.225 10.5187 109.921 9.8359C110.617 9.15312 110.964 8.18692 110.964 6.93731C110.964 5.68769 110.617 4.71505 109.921 4.01939C109.225 3.32372 108.253 2.97589 107.003 2.97589H105.438V10.8601H107.003Z" fill="#0A172F"/>
<path d="M119.478 2.80198V5.54598H123.903V8.09675H119.478V11.0726H124.483V13.72H116.174V0.154592H124.483V2.80198H119.478Z" fill="#0A172F"/>
<path d="M141.991 0.154592V13.72H138.686V5.58463L135.652 13.72H132.986L129.932 5.5653V13.72H126.628V0.154592H130.532L134.338 9.54604L138.107 0.154592H141.991Z" fill="#0A172F"/>
<path d="M156 0.154592L151.304 9.23686V13.72H148V9.23686L143.304 0.154592H147.053L149.681 5.83584L152.29 0.154592H156Z" fill="#0A172F"/>
</svg>
