<svg width="477" height="477" viewBox="0 0 477 477" fill="none" xmlns="http://www.w3.org/2000/svg">
<path fill-rule="evenodd" clip-rule="evenodd" d="M60.6433 0L75.1409 46.8255L10.8997 0H9.8874L74.3493 46.9863L0 38.986V39.5857L74.753 47.6294L0 118.585V119.407L75.3631 47.8724L140.738 155.253L0 138.448V139.049L140.622 155.839L60.8457 227.342L60.8368 227.335L0 157.35V158.27L59.8507 227.154L0 208.523V209.148L59.8942 227.792L0 250.027V250.663L60.369 228.252L23.6579 356.741L0 346.16V346.813L23.3787 357.27L0 386.868V387.83L23.7323 357.784L60.496 477H61.1199L24.3766 357.85L175.356 455.542L144.052 477H145.106L175.787 455.97L186.974 477H187.649L176.482 456.006L252.651 477H254.895L176.758 455.464L309.869 393.937L336.339 477H336.965L310.519 394.013L435.213 439.518L380.596 477H381.65L435.853 439.801L477 469.822V469.084L436.285 439.378L477 387.83V386.868L435.909 438.891L360.202 294.575L477 346.813V346.16L360.326 293.977L477 250.663V250.027L359.737 293.56L321.817 160.84L477 209.148V208.523L322.646 160.474L458.402 136.864L477 158.259V157.35L459.248 136.929L477 139.042V138.441L459.185 136.321L477 119.52V118.701L458.52 136.128L345.405 25.3752L345.67 25.1915L477 39.6584V39.0586L346.418 24.6741L382.085 0H381.037L345.514 24.5745L344.979 24.5155L337.121 0H336.495L344.327 24.4332L255.264 0H253.01L343.265 24.7601L220.76 62.2493L187.649 0H186.974L220.086 62.2514L76.2624 47.1898L145.106 0H144.052L75.7606 46.8109L61.2675 0H60.6433ZM175.628 455.008L24.6062 357.288L183.919 321.161L175.628 455.008ZM309.403 393.496L184.509 321.282L176.222 455.055L309.403 393.496ZM321.212 160.892L359.062 293.366L233.093 227.721L321.212 160.892ZM61.5968 227.469H231.68L141.323 156.011L61.5968 227.469ZM320.623 160.073L141.943 155.34L220.633 63.0417L320.623 160.073ZM343.96 25.1708L221.182 62.7437L321.179 159.782L343.96 25.1708ZM142.199 155.943L320.522 160.667L232.541 227.39L142.199 155.943ZM344.77 25.8147L344.663 25.4838L344.533 25.3563L321.743 160.025L457.892 136.347L344.905 25.7207L344.77 25.8147ZM75.9934 47.7611L220.018 62.8438L141.352 155.114L75.9934 47.7611ZM24.275 356.752L61.0022 228.207L183.624 320.617L24.275 356.752ZM309.924 393.108L184.656 320.678L359.017 294.332L309.924 393.108ZM232.665 228.17L358.59 293.793L184.969 320.028L232.665 228.17ZM232.047 228.066L184.24 320.138L184.023 320.171L61.806 228.066H232.047ZM310.465 393.359L359.546 294.607L435.237 438.892L310.465 393.359Z" fill="#1A3B65"/>
<path d="M9.83887 477H10.8505L0 469.084V469.822L9.83887 477Z" fill="#1A3B65"/>
<path d="M458.516 140.119C460.492 140.119 462.094 138.517 462.094 136.541C462.094 134.566 460.492 132.964 458.516 132.964C456.54 132.964 454.939 134.566 454.939 136.541C454.939 138.517 456.54 140.119 458.516 140.119Z" fill="#153B6B"/>
<path d="M321.379 163.969C323.355 163.969 324.956 162.367 324.956 160.391C324.956 158.416 323.355 156.814 321.379 156.814C319.403 156.814 317.801 158.416 317.801 160.391C317.801 162.367 319.403 163.969 321.379 163.969Z" fill="#153B6B"/>
<path d="M359.539 297.529C361.515 297.529 363.116 295.927 363.116 293.951C363.116 291.976 361.515 290.374 359.539 290.374C357.563 290.374 355.961 291.976 355.961 293.951C355.961 295.927 357.563 297.529 359.539 297.529Z" fill="#153B6B"/>
<path d="M435.859 443.014C437.835 443.014 439.436 441.412 439.436 439.436C439.436 437.461 437.835 435.859 435.859 435.859C433.883 435.859 432.281 437.461 432.281 439.436C432.281 441.412 433.883 443.014 435.859 443.014Z" fill="#153B6B"/>
<path d="M310.05 397.103C312.026 397.103 313.627 395.501 313.627 393.525C313.627 391.549 312.026 389.948 310.05 389.948C308.074 389.948 306.472 391.549 306.472 393.525C306.472 395.501 308.074 397.103 310.05 397.103Z" fill="#153B6B"/>
<path d="M184.241 324.36C186.217 324.36 187.819 322.758 187.819 320.783C187.819 318.807 186.217 317.205 184.241 317.205C182.265 317.205 180.664 318.807 180.664 320.783C180.664 322.758 182.265 324.36 184.241 324.36Z" fill="#153B6B"/>
<path d="M175.894 459.113C177.87 459.113 179.471 457.511 179.471 455.535C179.471 453.559 177.87 451.958 175.894 451.958C173.918 451.958 172.316 453.559 172.316 455.535C172.316 457.511 173.918 459.113 175.894 459.113Z" fill="#153B6B"/>
<path d="M23.85 360.731C25.8258 360.731 27.4275 359.13 27.4275 357.154C27.4275 355.178 25.8258 353.576 23.85 353.576C21.8742 353.576 20.2725 355.178 20.2725 357.154C20.2725 359.13 21.8742 360.731 23.85 360.731Z" fill="#153B6B"/>
<path d="M60.8175 231.345C62.7933 231.345 64.395 229.743 64.395 227.768C64.395 225.792 62.7933 224.19 60.8175 224.19C58.8417 224.19 57.24 225.792 57.24 227.768C57.24 229.743 58.8417 231.345 60.8175 231.345Z" fill="#153B6B"/>
<path d="M75.7237 51.2776C77.6995 51.2776 79.3012 49.6759 79.3012 47.7001C79.3012 45.7243 77.6995 44.1226 75.7237 44.1226C73.7479 44.1226 72.1462 45.7243 72.1462 47.7001C72.1462 49.6759 73.7479 51.2776 75.7237 51.2776Z" fill="#153B6B"/>
<path d="M220.612 66.1838C222.588 66.1838 224.19 64.5821 224.19 62.6063C224.19 60.6305 222.588 59.0288 220.612 59.0288C218.637 59.0288 217.035 60.6305 217.035 62.6063C217.035 64.5821 218.637 66.1838 220.612 66.1838Z" fill="#153B6B"/>
<path d="M344.632 28.6201C346.608 28.6201 348.21 27.0184 348.21 25.0426C348.21 23.0668 346.608 21.4651 344.632 21.4651C342.657 21.4651 341.055 23.0668 341.055 25.0426C341.055 27.0184 342.657 28.6201 344.632 28.6201Z" fill="#153B6B"/>
<path d="M141.311 159.199C143.287 159.199 144.889 157.597 144.889 155.621C144.889 153.646 143.287 152.044 141.311 152.044C139.335 152.044 137.734 153.646 137.734 155.621C137.734 157.597 139.335 159.199 141.311 159.199Z" fill="#153B6B"/>
<path d="M232.537 231.345C234.513 231.345 236.115 229.743 236.115 227.768C236.115 225.792 234.513 224.19 232.537 224.19C230.562 224.19 228.96 225.792 228.96 227.768C228.96 229.743 230.562 231.345 232.537 231.345Z" fill="#153B6B"/>
</svg>
