<svg width="179" height="17" viewBox="0 0 179 17" fill="none" xmlns="http://www.w3.org/2000/svg">
<path d="M13.0734 1.27724V16.3952C13.0734 16.5104 12.987 16.6256 12.8431 16.6256H11.2593C10.5394 16.6256 9.84828 16.2512 9.44513 15.6465L2.30369 4.61759L2.53406 10.1177V16.424C2.53406 16.5392 2.44767 16.6544 2.30369 16.6544H0.230368C0.115183 16.6544 0 16.568 0 16.424V1.27724C0 1.16206 0.0863871 1.04688 0.230368 1.04688H1.78536C2.50526 1.04688 3.19637 1.42122 3.59952 2.02594L10.741 13.0261L10.5106 7.526V1.27724C10.5106 1.16206 10.597 1.04688 10.741 1.04688H12.8143C12.9871 1.04688 13.0734 1.13326 13.0734 1.27724Z" fill="white"/>
<path d="M31.547 16.5968H29.3585C29.2145 16.5968 29.0993 16.4528 29.1569 16.3088L34.9737 1.24845C35.0313 1.13326 35.1465 1.04688 35.2617 1.04688H38.0261C38.1701 1.04688 38.2853 1.13326 38.314 1.24845L44.1597 16.3088C44.2173 16.4528 44.1021 16.5968 43.9581 16.5968H41.7696C41.6832 16.5968 41.5968 16.5392 41.568 16.4528L36.8742 4.07047C36.8167 3.89769 36.5287 3.89769 36.4711 4.07047L31.7773 16.4528C31.7197 16.5392 31.6333 16.5968 31.547 16.5968Z" fill="white"/>
<path d="M58.6002 16.2512L54.2232 10.6648C56.6996 10.204 58.1394 8.53387 58.1394 5.97101C58.1394 3.03381 56.2389 1.04688 52.8409 1.04688H46.7362C46.5634 1.04688 46.4194 1.19086 46.4194 1.36363C46.4194 2.51548 47.3409 3.43695 48.4927 3.43695H52.6106C54.6551 3.43695 55.6342 4.47361 55.6342 5.99981C55.6342 7.526 54.6839 8.56266 52.6106 8.56266H46.7938C46.621 8.56266 46.477 8.70665 46.477 8.87942V16.3664C46.477 16.4816 46.5634 16.5968 46.7074 16.5968H48.7807C48.8959 16.5968 49.0111 16.5104 49.0111 16.3664V10.8088H51.4011L55.2022 15.7617C55.6054 16.3088 56.2389 16.5968 56.93 16.5968H58.5138C58.629 16.5968 58.7154 16.3952 58.6002 16.2512Z" fill="white"/>
<path d="M26.7516 1.04688H17.1049C16.9321 1.04688 16.8169 1.16206 16.8169 1.33484C16.8169 2.48668 17.7672 3.43695 18.919 3.43695H26.7516C26.8668 3.43695 26.9819 3.35057 26.9819 3.20658V1.24845C26.9531 1.13326 26.8668 1.04688 26.7516 1.04688ZM26.7516 14.2067H19.5525C19.4374 14.2067 19.3222 14.1203 19.3222 13.9763V10.0889C19.3222 9.97368 19.4086 9.85849 19.5525 9.85849H26.2044C26.3196 9.85849 26.4348 9.7721 26.4348 9.62812V7.66998C26.4348 7.5548 26.3484 7.43962 26.2044 7.43962H17.1337C16.9609 7.43962 16.8169 7.5836 16.8169 7.75637V16.2512C16.8169 16.424 16.9609 16.568 17.1337 16.568H26.7516C26.8668 16.568 26.9819 16.4816 26.9819 16.3376V14.3795C26.9531 14.2931 26.8668 14.2067 26.7516 14.2067Z" fill="white"/>
<path d="M77.2955 13.8467H71.4862L70.5549 16.5961H66.5859L72.2179 1.03066H76.6081L82.2401 16.5961H78.2268L77.2955 13.8467ZM76.3199 10.9198L74.3908 5.22136L72.484 10.9198H76.3199Z" fill="white"/>
<path d="M83.3111 8.79121C83.3111 7.25388 83.6437 5.88655 84.3089 4.6892C84.9741 3.47708 85.898 2.53842 87.0806 1.87323C88.2779 1.19326 89.6305 0.853271 91.1382 0.853271C92.986 0.853271 94.5677 1.34108 95.8833 2.31669C97.1989 3.2923 98.0784 4.62268 98.5218 6.30783H94.3533C94.0429 5.65743 93.5994 5.16223 93.0229 4.82224C92.4612 4.48226 91.8182 4.31226 91.0939 4.31226C89.9261 4.31226 88.98 4.71877 88.2557 5.53178C87.5314 6.34479 87.1693 7.43127 87.1693 8.79121C87.1693 10.1512 87.5314 11.2376 88.2557 12.0506C88.98 12.8637 89.9261 13.2702 91.0939 13.2702C91.8182 13.2702 92.4612 13.1002 93.0229 12.7602C93.5994 12.4202 94.0429 11.925 94.3533 11.2746H98.5218C98.0784 12.9597 97.1989 14.2901 95.8833 15.2657C94.5677 16.2266 92.986 16.707 91.1382 16.707C89.6305 16.707 88.2779 16.3744 87.0806 15.7092C85.898 15.0292 84.9741 14.0906 84.3089 12.8932C83.6437 11.6959 83.3111 10.3285 83.3111 8.79121Z" fill="white"/>
<path d="M110.533 13.8467H104.724L103.793 16.5961H99.8238L105.456 1.03066H109.846L115.478 16.5961H111.465L110.533 13.8467ZM109.558 10.9198L107.629 5.22136L105.722 10.9198H109.558Z" fill="white"/>
<path d="M123.024 1.03066C124.664 1.03066 126.098 1.35586 127.325 2.00627C128.552 2.65668 129.498 3.57316 130.163 4.75572C130.843 5.9235 131.183 7.27606 131.183 8.81339C131.183 10.3359 130.843 11.6885 130.163 12.871C129.498 14.0536 128.545 14.9701 127.303 15.6205C126.076 16.2709 124.65 16.5961 123.024 16.5961H117.192V1.03066H123.024ZM122.78 13.3145C124.213 13.3145 125.33 12.9228 126.128 12.1393C126.926 11.3559 127.325 10.2472 127.325 8.81339C127.325 7.37953 126.926 6.26349 126.128 5.46526C125.33 4.66703 124.213 4.26792 122.78 4.26792H120.984V13.3145H122.78Z" fill="white"/>
<path d="M137.094 4.06836V7.21693H142.171V10.1438H137.094V13.5584H142.837V16.5961H133.302V1.03066H142.837V4.06836H137.094Z" fill="white"/>
<path d="M162.926 1.03066V16.5961H159.134V7.26127L155.653 16.5961H152.593L149.09 7.2391V16.5961H145.298V1.03066H149.777L154.145 11.8067L158.469 1.03066H162.926Z" fill="white"/>
<path d="M179 1.03066L173.612 11.452V16.5961H169.821V11.452L164.433 1.03066H168.734L171.75 7.54952L174.743 1.03066H179Z" fill="white"/>
</svg>
