<svg width="26" height="26" viewBox="0 0 26 26" fill="none" xmlns="http://www.w3.org/2000/svg">
<path d="M13 25.9999C11.0345 26.0055 9.09381 25.5608 7.32683 24.7C6.68016 24.3854 6.06056 24.018 5.47434 23.6015L5.29624 23.4715C3.68404 22.2814 2.36593 20.7378 1.44306 18.9592C0.48852 17.1182 -0.00655475 15.0737 6.55322e-05 13C6.55322e-05 5.82009 5.82014 0 13 0C20.1799 0 25.9999 5.82009 25.9999 13C26.0065 15.0727 25.5119 17.1163 24.5582 18.9566C23.6367 20.7342 22.3204 22.2773 20.7103 23.4676C20.1032 23.9122 19.4584 24.3035 18.7837 24.6376L18.6797 24.6896C16.9116 25.555 14.9685 26.0033 13 25.9999ZM13 19.5C12.0446 19.4981 11.1072 19.7602 10.2912 20.2573C9.47526 20.7544 8.81246 21.4672 8.37592 22.3171C9.81339 23.0291 11.3959 23.3995 13 23.3995C14.6041 23.3995 16.1866 23.0291 17.6241 22.3171V22.3106C17.187 21.4616 16.5239 20.7499 15.7079 20.2539C14.892 19.7579 13.9549 19.497 13 19.5ZM13 16.9C14.3834 16.9015 15.7416 17.2701 16.9361 17.968C18.1305 18.666 19.1184 19.6683 19.799 20.8728L19.8172 20.8559L19.8354 20.8403L19.8133 20.8598L19.8003 20.8702C21.4056 19.4832 22.5484 17.6385 23.0754 15.5835C23.6023 13.5284 23.4881 11.3614 22.7482 9.37312C22.0083 7.38483 20.678 5.67039 18.9358 4.4598C17.1936 3.24922 15.1228 2.6004 13.0013 2.6004C10.8798 2.6004 8.80904 3.24922 7.06684 4.4598C5.32464 5.67039 3.99433 7.38483 3.25441 9.37312C2.51448 11.3614 2.40032 13.5284 2.92724 15.5835C3.45417 17.6385 4.59697 19.4832 6.20233 20.8702C6.88332 19.6663 7.87139 18.6646 9.06578 17.9671C10.2602 17.2696 11.6182 16.9014 13.0013 16.9H13ZM13 15.6C11.6209 15.6 10.2982 15.0521 9.32306 14.0769C8.34788 13.1017 7.80003 11.7791 7.80003 10.4C7.80003 9.02086 8.34788 7.69822 9.32306 6.72303C10.2982 5.74784 11.6209 5.19999 13 5.19999C14.3791 5.19999 15.7018 5.74784 16.6769 6.72303C17.6521 7.69822 18.2 9.02086 18.2 10.4C18.2 11.7791 17.6521 13.1017 16.6769 14.0769C15.7018 15.0521 14.3791 15.6 13 15.6ZM13 7.79998C12.3104 7.79998 11.6491 8.07391 11.1615 8.56151C10.6739 9.0491 10.4 9.71042 10.4 10.4C10.4 11.0895 10.6739 11.7509 11.1615 12.2385C11.6491 12.726 12.3104 13 13 13C13.6896 13 14.3509 12.726 14.8385 12.2385C15.3261 11.7509 15.6 11.0895 15.6 10.4C15.6 9.71042 15.3261 9.0491 14.8385 8.56151C14.3509 8.07391 13.6896 7.79998 13 7.79998Z" fill="white"/>
</svg>
